<svg width="17" height="17" viewBox="0 0 17 17" fill="none" xmlns="http://www.w3.org/2000/svg">
<path fill-rule="evenodd" clip-rule="evenodd" d="M8.00962 0C3.58603 0 0 3.50683 0 7.83272C0 12.1586 3.58603 15.6654 8.00962 15.6654C9.90157 15.6654 11.6403 15.0239 13.0108 13.9513L15.6142 16.4905L15.6835 16.5489C15.9252 16.7238 16.2679 16.7039 16.4866 16.4894C16.7271 16.2535 16.7266 15.8716 16.4854 15.6363L13.9126 13.1269C15.2208 11.7328 16.0192 9.87395 16.0192 7.83272C16.0192 3.50683 12.4332 0 8.00962 0ZM8.00961 1.20645C11.7519 1.20645 14.7855 4.17313 14.7855 7.83272C14.7855 11.4923 11.7519 14.459 8.00961 14.459C4.26737 14.459 1.23369 11.4923 1.23369 7.83272C1.23369 4.17313 4.26737 1.20645 8.00961 1.20645Z" fill="url(#paint0_linear_161_306)"/>
<defs>
<linearGradient id="paint0_linear_161_306" x1="16.6667" y1="16.6667" x2="-0.271478" y2="16.386" gradientUnits="userSpaceOnUse">
<stop stop-color="#888BF4"/>
<stop offset="1" stop-color="#5151C6"/>
</linearGradient>
</defs>
</svg>
